<?xml version="1.0" encoding="utf-8"?>
<!-- Generator: Adobe Illustrator 22.1.0, SVG Export Plug-In . SVG Version: 6.00 Build 0)  -->
<svg version="1.1" id="图层_1" xmlns="http://www.w3.org/2000/svg" xmlns:xlink="http://www.w3.org/1999/xlink" x="0px" y="0px"
	 viewBox="0 0 119 136" style="enable-background:new 0 0 119 136;" xml:space="preserve">
<style type="text/css">
	.st0{fill:#93B5CF;}
</style>
<path id="形状_1" class="st0" d="M41.8,130.8c-2.2,0-3.7-1-3.7-2.8V90.4c-0.1-4,0-10.3,7-10.3c0.3,0,0.6,0,0.8,0h28.2
	c7.2,0,7.2,6.2,7.2,10.2v37.7c0,1.3-1.7,2.4-3.7,2.4c-2.2,0-4.1-1.1-4.1-2.4V90.1c0-1.3-1.1-2.4-2.4-2.4c0,0,0,0,0,0H48.9
	c-1.1,0-3.1,0.3-3.1,2.5V128C45.9,129.3,44.6,130.8,41.8,130.8z M105.4,135.7H81.3c-4,0.3-7.5-2.7-7.8-6.7c0,0,0,0,0,0
	c0-0.2,0-0.3,0-0.5c0-1.3,1.1-3.1,3.6-3.3c1.1-0.1,4.1,1.1,4.1,2c0,0.2,0,0.5,0.1,0.7h21.1c1.3,0,2.4-1.1,2.4-2.4c0,0,0,0,0,0V70.6
	c0-1.8,0.7-3.5,1.9-4.8l4.2-4.6c0.9-0.9,0.9-2.4,0-3.3L61.2,8.2c-0.9-0.9-2.4-0.9-3.4,0L8.2,57.8c-0.9,0.9-0.9,2.4,0,3.3l4.4,4.6
	c1.3,1.3,2,3.1,2.1,4.9v54.8c0,1.3,1.1,2.4,2.4,2.4h21c0.1-0.9,0.1-0.9,0.1-1.5c0-1.3,2.3-2.1,3.9-2.1c3.6,0.2,3.9,2.9,3.9,4.2
	c-0.1,4-3.3,7.2-7.4,7.2c0,0,0,0,0,0c-0.2,0-0.3,0-0.5,0H14c-4,0-7.2-3.2-7.2-7.2l0,0V70.7c0-0.6-0.2-1.2-0.7-1.6l-4.5-4.6
	c-2.7-2.8-2.7-7.2,0-10L54.4,1.8c2.8-2.8,7.3-2.8,10.1,0l52.7,52.8c2.7,2.7,2.8,7.1,0.2,9.9l-4.2,4.5c-0.4,0.4-0.6,1-0.6,1.6v57.9
	C112.6,132.5,109.4,135.7,105.4,135.7L105.4,135.7L105.4,135.7L105.4,135.7z"/>
</svg>
