<?xml version="1.0" encoding="utf-8"?>
<!-- Generator: Adobe Illustrator 22.1.0, SVG Export Plug-In . SVG Version: 6.00 Build 0)  -->
<svg version="1.1" id="图层_1" xmlns="http://www.w3.org/2000/svg" xmlns:xlink="http://www.w3.org/1999/xlink" x="0px" y="0px"
	 viewBox="0 0 25 27" style="enable-background:new 0 0 25 27;" xml:space="preserve">
<style type="text/css">
	.st0{fill:#E6001A;}
</style>
<title>Oval 2 + Oval 8</title>
<desc>Created with Sketch.</desc>
<g id="Page-1">
	<g id="details" transform="translate(-299.000000, -688.000000)">
		<g id="Oval-2-_x2B_-Oval-8" transform="translate(300.000000, 689.000000)">
			<path id="Oval-2" class="st0" d="M23.4,25.7h-1.7c0-5.7-4.6-10.2-10.4-10.2S0.9,20.1,0.9,25.7h-1.7c0-6.6,5.4-12,12.1-12
				S23.4,19.1,23.4,25.7z"/>
			<path id="Oval-8" class="st0" d="M11.2,15.5C6.7,15.5,3,11.8,3,7.3s3.7-8.2,8.3-8.2s8.3,3.7,8.3,8.2S15.8,15.5,11.2,15.5z
				 M11.2,13.8c3.6,0,6.5-2.9,6.5-6.4s-2.9-6.4-6.5-6.4S4.7,3.8,4.7,7.3S7.6,13.8,11.2,13.8z"/>
		</g>
	</g>
</g>
</svg>
